<svg width="128" height="128" viewBox="0 0 128 128" fill="none" xmlns="http://www.w3.org/2000/svg">
<path d="M108.59 26.148C106.738 26.148 104.968 26.359 103.285 26.863C101.601 27.367 100.168 28.086 98.9062 29.051C97.6605 29.972 96.6269 31.1495 95.8752 32.504C95.1182 33.852 94.7382 35.41 94.7382 37.18C94.7382 39.367 95.4542 41.43 96.8442 43.285C98.2302 45.18 100.504 46.609 103.578 47.578L109.684 49.473C111.746 50.148 113.18 50.864 113.938 51.664C114.695 52.465 115.074 53.429 115.074 54.609C115.074 56.335 114.316 57.683 112.883 58.609C111.453 59.534 109.391 60 106.738 60C105.051 60 103.41 59.832 101.727 59.496C100.135 59.1684 98.5823 58.6736 97.0942 58.02C96.6732 57.852 96.2932 57.684 96.0432 57.602C95.7994 57.5175 95.5433 57.4736 95.2852 57.472C94.6512 57.472 94.3162 57.895 94.3162 58.777V60.926C94.3178 61.3327 94.4043 61.7347 94.5702 62.106C94.7382 62.486 95.1992 62.906 95.8752 63.286C96.9692 63.914 98.6092 64.465 100.715 64.969C102.82 65.473 105.012 65.727 107.199 65.727C109.349 65.727 111.328 65.43 113.223 64.844C115.031 64.293 116.59 63.535 117.895 62.484C119.199 61.474 120.211 60.211 120.969 58.777C121.683 57.348 122.063 55.707 122.063 53.895C122.063 51.707 121.43 49.727 120.125 48C118.821 46.273 116.634 44.926 113.602 43.957L107.622 42.062C105.392 41.349 103.832 40.546 102.988 39.746C102.148 38.949 101.727 37.938 101.727 36.758C101.727 35.032 102.398 33.808 103.707 33.012C105.012 32.211 106.906 31.832 109.305 31.832C112.293 31.832 114.988 32.379 117.391 33.472C118.105 33.809 118.652 33.98 118.988 33.98C119.621 33.98 119.957 33.517 119.957 32.633V30.653C119.957 30.063 119.832 29.602 119.578 29.262C119.328 28.884 118.906 28.547 118.316 28.211C117.894 27.957 117.305 27.707 116.546 27.453C115.756 27.1971 114.956 26.9716 114.148 26.777C113.262 26.609 112.379 26.441 111.41 26.317C110.475 26.1985 109.533 26.142 108.59 26.148ZM21.7682 26.23C19.4522 26.23 17.2602 26.484 15.1982 27.031C13.1352 27.536 11.3672 28.168 9.89523 28.926C9.30523 29.223 8.92523 29.516 8.71523 29.809C8.50423 30.105 8.42223 30.609 8.42223 31.285V33.348C8.42223 34.23 8.71523 34.652 9.30523 34.652C9.47323 34.652 9.68323 34.609 9.97923 34.527C10.2722 34.441 10.7752 34.273 11.4512 33.98C12.9308 33.3947 14.4504 32.9158 15.9982 32.547C17.4873 32.1835 19.0145 31.9999 20.5472 32C23.7892 32 26.0602 32.633 27.4102 33.938C28.7142 35.241 29.3902 37.472 29.3902 40.672V43.746C27.7072 43.367 26.1072 43.031 24.5472 42.82C22.9892 42.61 21.5162 42.484 20.0862 42.484C15.7462 42.484 12.3362 43.578 9.77023 45.77C7.19923 47.957 5.93823 50.863 5.93823 54.441C5.93823 57.809 6.98823 60.504 9.05123 62.527C11.1172 64.547 13.9382 65.559 17.4732 65.559C22.4432 65.559 26.5702 63.621 29.8522 59.746C30.2527 60.5915 30.6877 61.4202 31.1562 62.23C31.5983 62.9361 32.1059 63.599 32.6722 64.21C33.0942 64.59 33.5162 64.8 33.9382 64.8C34.2722 64.8 34.6522 64.672 35.0312 64.422L37.6842 62.652C38.2302 62.232 38.4842 61.809 38.4842 61.391C38.4782 61.0468 38.3768 60.711 38.1912 60.421C37.6682 59.4456 37.218 58.4328 36.8442 57.391C36.5472 56.466 36.3792 55.201 36.3792 53.641H36.2932V40C36.2932 35.367 35.1172 31.914 32.8012 29.64C30.4412 27.367 26.7762 26.23 21.7682 26.23ZM41.3482 27.242C40.6722 27.242 40.3362 27.621 40.3362 28.293C40.3362 28.59 40.4652 29.137 40.7152 29.98L50.6092 62.527C50.8632 63.327 51.1562 63.914 51.4962 64.168C51.8322 64.465 52.3362 64.59 53.0942 64.59H56.7142C57.4732 64.59 58.0612 64.465 58.3982 64.168C58.7382 63.875 58.9892 63.328 59.1992 62.484L65.6842 35.367L72.2112 62.527C72.3792 63.367 72.6712 63.914 73.0112 64.211C73.3482 64.503 73.8942 64.633 74.6952 64.633H78.3162C79.0312 64.633 79.5782 64.466 79.9142 64.211C80.2542 63.958 80.5472 63.411 80.8012 62.571L90.9492 30.02C91.1172 29.56 91.1992 29.223 91.2422 28.969C91.2852 28.715 91.3282 28.503 91.3282 28.293C91.3282 27.578 90.9492 27.243 90.2732 27.243H86.3602C85.6032 27.243 85.0522 27.409 84.7162 27.664C84.4232 27.914 84.1262 28.464 83.8762 29.304L76.5902 57.517L69.9372 29.306C69.7712 28.506 69.4732 27.916 69.1372 27.666C68.8012 27.368 68.2532 27.243 67.4532 27.243H64.0862C63.3282 27.243 62.7382 27.41 62.3982 27.665C62.0632 27.915 61.8102 28.465 61.6022 29.305L55.0322 57.181L47.9572 29.306C47.7072 28.506 47.4532 27.916 47.1172 27.666C46.8202 27.368 46.2732 27.243 45.4732 27.243L41.3482 27.242ZM21.6402 47.496C22.9641 47.4969 24.2867 47.5804 25.6002 47.746C26.9036 47.9115 28.1964 48.1516 29.4722 48.465V50.23C29.4722 51.665 29.3042 52.883 29.0502 53.895C28.8002 54.905 28.2922 55.79 27.6202 56.59C26.4832 57.852 25.1362 58.777 23.6202 59.285C22.1042 59.789 20.6712 60.043 19.2842 60.043C17.3472 60.043 15.8742 59.535 14.8622 58.484C13.8082 57.474 13.3042 56 13.3042 54.02C13.3042 51.914 13.9792 50.316 15.3662 49.18C16.7572 48.043 18.8202 47.496 21.6402 47.496ZM118 73.348C113.568 73.411 108.336 74.4 104.379 77.18C103.156 78.063 103.367 79.242 104.715 79.074C109.223 78.527 119.155 77.348 120.925 79.621C122.695 81.851 118.949 91.241 117.262 95.411C116.758 96.671 117.852 97.18 118.988 96.211C126.398 89.98 128.336 76.969 126.82 75.074C126.063 74.149 122.432 73.284 118 73.348ZM1.63023 75.859C0.704232 75.975 0.283232 77.095 1.26223 77.98C17.7702 92.882 39.6212 101.852 63.8752 101.852C81.1802 101.852 101.305 96.422 115.156 86.192C117.429 84.503 115.454 81.938 113.136 82.988C97.6032 89.558 80.7152 92.758 65.3482 92.758C42.5702 92.758 20.5482 86.485 2.69523 76.125C2.30523 75.894 1.94023 75.821 1.63123 75.859H1.63023Z" fill="black"/>
</svg>
