<svg width="128" height="128" viewBox="0 0 128 128" fill="none" xmlns="http://www.w3.org/2000/svg">
<g clip-path="url(#clip0_44_366)">
<path d="M66.332 70.032C66.572 65.79 68.659 62.045 71.817 59.398C74.911 56.796 79.065 55.205 83.626 55.205C88.163 55.205 92.316 56.795 95.406 59.398C98.569 62.045 100.643 65.79 100.891 70.032C101.131 74.382 99.368 78.442 96.286 81.449C93.128 84.499 88.659 86.426 83.626 86.426C78.589 86.426 74.1 84.511 70.962 81.449C67.868 78.443 66.109 74.405 66.356 70.052L66.332 70.032Z" fill="black"/>
<path d="M39.2448 79.002C39.2728 80.662 39.8088 83.892 40.6048 86.406C42.2868 91.742 45.1418 96.679 49.0948 101.005C53.1568 105.47 58.1688 109.06 63.9448 111.615C70.0178 114.285 76.6098 115.652 83.4498 115.652C90.2898 115.643 96.8818 114.252 102.954 111.55C108.73 108.968 113.744 105.382 117.804 100.893C121.778 96.519 124.624 91.586 126.295 86.246C127.132 83.5936 127.667 80.8553 127.89 78.083C128.098 75.393 128.01 72.678 127.627 69.963C126.877 64.7317 125.031 59.7176 122.21 55.249C119.636 51.099 116.294 47.489 112.32 44.436L112.332 44.432L72.3768 13.926C72.3408 13.898 72.3088 13.87 72.2728 13.846C69.6538 11.844 65.2288 11.852 62.3628 13.854C59.4488 15.885 59.1128 19.239 61.7068 21.35L61.6948 21.358L78.3768 34.842L27.5878 34.893H27.5198C23.3228 34.897 19.2808 37.632 18.4898 41.106C17.6698 44.627 20.5248 47.566 24.9018 47.566L24.8938 47.582L50.6298 47.534L4.57979 82.524C4.52379 82.568 4.45979 82.612 4.40379 82.656C0.0687943 85.95 -1.33021 91.446 1.39979 94.9C4.17779 98.422 10.0658 98.446 14.4468 94.92L39.5048 74.51C39.5048 74.51 39.1368 77.268 39.1688 78.907L39.2448 79.002ZM103.805 88.221C98.6368 93.449 91.3888 96.431 83.5778 96.431C75.7468 96.443 68.4988 93.513 63.3298 88.289C60.8038 85.73 58.9528 82.816 57.8018 79.698C56.6766 76.6299 56.2426 73.3512 56.5308 70.096C56.8044 66.9199 57.7514 63.8386 59.3088 61.057C60.8158 58.343 62.8988 55.877 65.4488 53.79C70.4818 49.732 76.8688 47.51 83.5488 47.51C90.2578 47.502 96.6458 49.684 101.679 53.746C104.229 55.821 106.304 58.275 107.819 60.989C109.379 63.7703 110.325 66.854 110.593 70.032C110.877 73.2858 110.443 76.5623 109.322 79.63C108.175 82.772 106.32 85.686 103.789 88.245L103.805 88.221Z" fill="black"/>
</g>
<defs>
<clipPath id="clip0_44_366">
<rect width="128" height="128" fill="white"/>
</clipPath>
</defs>
</svg>
