<svg width="128" height="128" viewBox="0 0 128 128" fill="none" xmlns="http://www.w3.org/2000/svg">
<path d="M63.4432 0C61.6612 0 59.8792 0.39 58.5272 1.172L11.5942 28.27C8.89018 29.828 6.68018 33.66 6.68018 36.78V90.977C6.68018 92.539 7.23018 94.275 8.12118 95.818L8.11918 95.82C9.00918 97.363 10.2422 98.71 11.5942 99.492L58.5252 126.586C61.2282 128.148 65.6552 128.148 68.3572 126.586H68.3592L115.293 99.492C116.645 98.712 117.875 97.363 118.766 95.82C119.656 94.277 120.207 92.54 120.207 90.977V36.779C120.207 35.222 119.657 33.484 118.766 31.941V31.939C117.875 30.394 116.645 29.046 115.293 28.269L68.3592 1.173C67.0082 0.39 65.2262 0 63.4432 0ZM63.4452 26.033C76.9102 26.033 89.4652 33.279 96.2152 44.943L79.8352 54.422C76.4632 48.586 70.1752 44.955 63.4452 44.955C53.0132 44.955 44.5232 53.445 44.5232 63.879C44.5232 74.313 53.0132 82.8 63.4452 82.8C70.1802 82.8 76.4602 79.175 79.8402 73.335L96.2152 82.812C89.4692 94.474 76.9102 101.722 63.4452 101.722C42.5782 101.722 25.6022 84.745 25.6022 63.878C25.6022 43.011 42.5782 26.033 63.4452 26.033ZM92.8812 57.57H97.0822V61.777H101.285V65.98H97.0822V70.187H92.8812V65.98H88.6742V61.777H92.8812V57.57ZM108.646 57.57H112.854V61.777H117.057V65.98H112.854V70.187H108.646V65.98H104.441V61.777H108.646V57.57Z" fill="black"/>
</svg>
