<svg width="128" height="128" viewBox="0 0 128 128" fill="none" xmlns="http://www.w3.org/2000/svg">
<g clip-path="url(#clip0_44_298)">
<path d="M124.129 63.02C124.129 55.328 118.301 48.855 110.477 47.008L128 0.112976H41.1598L58.7228 47.156C51.1448 49.152 45.5588 55.512 45.5588 63.059C45.5588 68.605 48.6168 73.523 53.2618 76.555C51.4298 78.922 49.3088 81.105 46.9058 83.175C42.3828 87.023 37.3668 89.98 31.9488 91.941C27.0588 88.945 24.9408 83.656 26.8548 78.921C34.3118 76.851 39.7348 70.527 39.7348 63.094C39.7348 53.961 31.5428 46.562 21.5148 46.562C11.4488 46.562 3.2618 53.996 3.2618 63.132C3.2618 67.645 5.2968 71.785 8.5588 74.742C8.2728 75.262 7.9888 75.777 7.7028 76.332C4.9728 81.438 1.8748 87.207 0.690801 93.68C-1.6722 106.621 2.1988 117.016 11.5308 122.895C16.7888 126.188 22.5778 127.852 28.8128 127.852C39.5268 127.852 50.4098 122.969 60.9218 118.234C68.4218 114.871 76.1638 111.355 83.7848 109.656C86.5978 109.027 89.5308 108.656 92.6288 108.25C98.9018 107.437 105.383 106.586 111.211 103.516C118.016 99.93 122.661 93.937 124.008 87.059C125.023 81.769 124.008 76.445 121.398 71.785C123.181 69.2102 124.134 66.1517 124.129 63.02ZM116.184 63.02C116.184 68.16 111.578 72.34 105.914 72.34C100.25 72.34 95.6438 68.16 95.6438 63.02C95.6438 61.355 96.1328 59.766 96.9878 58.398C97.3128 57.878 97.7228 57.363 98.1278 56.918C98.5571 56.4603 99.0357 56.0515 99.5548 55.699L99.5978 55.66C99.9218 55.438 100.289 55.215 100.656 54.996C100.656 54.996 100.696 54.996 100.696 54.957C100.859 54.883 101.023 54.773 101.188 54.699C101.227 54.699 101.266 54.66 101.308 54.66C101.473 54.59 101.676 54.516 101.878 54.441C102.071 54.3736 102.261 54.2996 102.449 54.219C102.489 54.219 102.531 54.179 102.57 54.179C102.734 54.145 102.898 54.07 103.059 54.035C103.102 54.035 103.184 53.996 103.223 53.996C103.426 53.961 103.59 53.922 103.793 53.886H103.836L104.446 53.773C104.488 53.773 104.566 53.773 104.609 53.738C104.773 53.738 104.934 53.699 105.098 53.699H105.301C105.504 53.699 105.711 53.664 105.953 53.664H106.484C106.644 53.664 106.77 53.664 106.93 53.699H107.012C107.34 53.739 107.664 53.773 107.992 53.848C112.637 54.734 116.184 58.508 116.184 63.02ZM52.5268 7.50798H116.629L101.918 46.895C101.308 47.008 100.695 47.191 100.086 47.375L84.6018 18.715L69.0738 47.19C68.4608 47.007 67.8088 46.894 67.1598 46.784L52.5268 7.50798ZM81.6638 59.8C80.8908 56.323 78.9338 53.218 76.1638 50.925L84.6018 35.468L93.1168 51.257C90.5898 53.55 88.7568 56.472 88.0228 59.8H81.6638ZM61.2498 53.96C61.4528 53.92 61.6168 53.886 61.8198 53.847H61.9408C62.1048 53.812 62.2698 53.812 62.4298 53.772H62.5938C62.7578 53.772 62.8788 53.737 63.0428 53.737H64.6328C64.7928 53.737 64.9178 53.772 65.0388 53.772C65.1208 53.772 65.1598 53.772 65.2418 53.812C65.4058 53.847 65.5268 53.847 65.6918 53.886C65.7298 53.886 65.7728 53.886 65.8548 53.921C66.0588 53.96 66.2618 53.995 66.4248 54.034H66.4648C66.6288 54.069 66.7928 54.104 66.9528 54.179C66.9958 54.179 67.0348 54.218 67.1168 54.218C67.2378 54.253 67.4018 54.292 67.5228 54.366C67.5658 54.366 67.6048 54.401 67.6478 54.401C67.8078 54.476 67.9728 54.515 68.1368 54.589H68.1758C68.3788 54.659 68.5428 54.733 68.7068 54.847H68.7468C68.9098 54.921 69.0738 55.03 69.2378 55.104C69.2778 55.104 69.2778 55.144 69.3158 55.144C69.4798 55.214 69.6018 55.327 69.7658 55.401L69.8088 55.436C70.2968 55.769 70.7458 56.14 71.1908 56.511L71.2338 56.546C71.6408 56.952 72.0468 57.397 72.3748 57.878C73.4338 59.358 74.0468 61.097 74.0468 62.983C74.0468 68.124 69.4408 72.3 63.7768 72.3C58.1128 72.3 53.5068 68.124 53.5068 62.983C53.4648 58.655 56.7658 54.995 61.2498 53.96ZM21.1478 53.698C26.8128 53.698 31.4178 57.878 31.4178 63.018C31.4178 68.159 26.8128 72.338 21.1478 72.338C15.4838 72.338 10.8778 68.159 10.8778 63.018C10.8778 57.878 15.4838 53.698 21.1478 53.698ZM115.938 85.765C115.043 90.495 111.82 94.64 107.094 97.116C102.652 99.448 97.1908 100.186 91.4448 100.925C88.3088 101.331 85.0078 101.776 81.8278 102.479C73.3518 104.366 65.2028 108.065 57.2968 111.612C47.1908 116.163 37.6518 120.452 28.8128 120.452C24.2068 120.452 20.0898 119.269 16.1798 116.792C7.2148 111.171 7.6598 100.632 8.7228 94.862C9.6988 89.46 12.4298 84.394 15.0388 79.55C15.1988 79.253 15.3238 78.995 15.4838 78.698C16.3828 78.995 17.3198 79.218 18.2968 79.366C16.7498 87.206 21.1478 95.304 29.7068 99.3L31.2568 100.038L32.9258 99.483C40.0588 97.19 46.6598 93.456 52.4878 88.463C55.7888 85.651 58.6018 82.62 60.9648 79.327C61.9018 79.476 62.8398 79.515 63.7768 79.515C72.2538 79.515 79.3828 74.225 81.4218 67.124H88.2658C90.3048 74.261 97.4368 79.514 105.914 79.514C109.297 79.514 112.434 78.664 115.121 77.222C116.184 79.995 116.508 82.878 115.938 85.765Z" fill="black"/>
</g>
<defs>
<clipPath id="clip0_44_298">
<rect width="128" height="128" fill="white"/>
</clipPath>
</defs>
</svg>
