<svg width="128" height="128" viewBox="0 0 128 128" fill="none" xmlns="http://www.w3.org/2000/svg">
<path d="M0 91.3131H4.242V74.5661L10.808 89.1641C11.581 90.9341 12.64 91.5551 14.722 91.5551C16.804 91.5551 17.82 90.9341 18.593 89.1641L25.159 74.5661V91.312H29.401V74.5941C29.401 72.9611 28.749 72.1721 27.401 71.7661C24.178 70.7621 22.018 71.6291 21.038 73.8051L14.597 88.215L8.359 73.8051C7.422 71.6291 5.219 70.7621 2 71.7661C0.652 72.1721 0 72.9611 0 74.5941L0 91.3131ZM32.93 77.6801H37.168V86.9071C37.129 87.4071 37.328 88.5831 39.652 88.6221H48.875V77.6331H53.125C53.145 77.6331 53.117 92.6171 53.117 92.6801C53.14 96.3751 48.535 97.176 46.41 97.2391H33.02V94.3871L46.434 94.3831C49.164 94.0981 48.84 92.7381 48.84 92.2851V91.1721H39.828C35.633 91.133 32.965 89.3011 32.93 87.1951C32.926 87.0041 33.02 77.7741 32.93 77.6801ZM56.391 91.3131H68.586C70.012 91.3131 71.399 91.0121 72.5 90.4971C74.336 89.6571 75.23 88.5131 75.23 87.0171V83.9191C75.23 82.6961 74.214 81.5521 72.214 80.7941C71.155 80.3841 69.847 80.1691 68.585 80.1691H63.444C61.733 80.1691 60.917 79.6531 60.714 78.5131C60.675 78.3761 60.675 78.2671 60.675 78.1301V76.2001C60.675 76.091 60.675 75.9811 60.714 75.8451C60.917 74.9781 61.366 74.7321 62.874 74.5951L63.284 74.5681H75.393V71.7441H63.488C61.777 71.7441 60.879 71.8531 60.062 72.0961C57.535 72.8851 56.433 74.1351 56.433 76.3111V78.784C56.433 80.6861 58.593 82.319 62.222 82.6981C62.632 82.7251 63.038 82.7531 63.445 82.7531H67.851C68.015 82.7531 68.175 82.7531 68.3 82.7801C69.644 82.8891 70.214 83.1351 70.624 83.6241C70.835 83.8191 70.956 84.0971 70.948 84.3821V86.8591C70.948 87.1561 70.745 87.5391 70.339 87.8631C69.972 88.1911 69.359 88.4061 68.546 88.4611L68.097 88.4881H56.391V91.3131ZM101.688 86.3911C101.688 89.3011 103.852 90.9301 108.211 91.2581C108.621 91.2851 109.027 91.3131 109.438 91.3131H120.489V88.4851H109.356C106.868 88.4851 105.93 87.8601 105.93 86.3641V71.7381H101.692V86.3901L101.688 86.3911ZM77.938 86.5391V76.4571C77.938 73.8981 79.739 72.3441 83.293 71.8551C83.6722 71.8003 84.0549 71.7729 84.438 71.7731H92.485C92.895 71.7731 93.262 71.8001 93.673 71.8551C97.228 72.3431 99.025 73.8981 99.025 76.4571V86.5391C99.025 88.6171 98.263 89.7271 96.502 90.4531L100.682 94.2231H95.756L92.377 91.1721L88.975 91.3871H84.44C83.5972 91.3841 82.7587 91.2656 81.948 91.0351C79.249 90.3011 77.94 88.8831 77.94 86.5391H77.938ZM82.516 86.2931C82.516 86.4301 82.559 86.5661 82.598 86.7311C82.844 87.9031 83.95 88.5551 85.621 88.5551H89.473L85.934 85.3601H90.86L93.946 88.1491C94.516 87.8441 94.891 87.3831 95.02 86.7861C95.063 86.6491 95.063 86.5131 95.063 86.3761V76.7081C95.063 76.5991 95.063 76.4621 95.02 76.3251C94.774 75.2351 93.672 74.6101 92.04 74.6101H85.622C83.743 74.6101 82.517 75.4261 82.517 76.7081L82.516 86.2931ZM124.219 67.0471C121.614 66.9771 119.621 67.2191 117.918 67.9381C117.434 68.1411 116.66 68.1451 116.582 68.7511C116.848 69.0321 116.891 69.4501 117.102 69.7901C117.508 70.4501 118.196 71.3291 118.809 71.7901C119.473 72.2981 120.164 72.8371 120.883 73.2741C122.156 74.0511 123.582 74.4971 124.813 75.2741C125.536 75.7351 126.254 76.3131 126.961 76.8331C127.309 77.0871 127.543 77.4891 128 77.6491V77.5751C127.762 77.2701 127.699 76.8521 127.48 76.5361L126.515 75.5711C125.574 74.3211 124.378 73.2231 123.105 72.3091C122.089 71.5821 119.824 70.5981 119.398 69.4181L119.324 69.3441C120.043 69.2661 120.887 69.0041 121.547 68.8281C122.664 68.5271 123.66 68.6051 124.809 68.3081L126.368 67.8591V67.5661C125.786 66.9681 125.372 66.1791 124.735 65.6361C123.079 64.2261 121.266 62.8121 119.399 61.6321C118.364 60.9801 117.087 60.5581 115.989 60.0031C115.622 59.8161 114.973 59.7221 114.727 59.4091C114.153 58.6751 113.84 57.7451 113.395 56.8891C112.445 55.0406 111.555 53.162 110.727 51.2561C110.165 49.9711 109.797 48.7011 109.094 47.5491C105.731 42.0141 102.106 38.6741 96.492 35.3931C95.301 34.6941 93.859 34.4201 92.344 34.0611L89.895 33.9131C89.399 33.7021 88.883 33.0931 88.415 32.8001C86.556 31.6241 81.786 29.0701 80.407 32.4291C79.54 34.5501 81.708 36.6201 82.485 37.6951C83.028 38.4491 83.727 39.2931 84.114 40.1401C84.372 40.6951 84.415 41.2531 84.634 41.8431C85.173 43.2961 85.642 44.8741 86.341 46.2181C86.693 46.8981 87.079 47.6131 87.525 48.2181C87.798 48.5891 88.267 48.7571 88.341 49.3311C87.884 49.9721 87.857 50.9641 87.599 51.7761C86.439 55.4281 86.876 59.9671 88.564 62.6741C89.08 63.5021 90.298 65.2831 91.974 64.6001C93.439 64.0021 93.111 62.1551 93.529 60.5221C93.627 60.1551 93.568 59.8811 93.752 59.6351V59.7091L95.088 62.3771C96.076 63.9671 97.826 65.6271 99.311 66.7481C100.084 67.3301 100.69 68.3381 101.686 68.6781V68.6001H101.612C101.417 68.3031 101.116 68.1781 100.87 67.9361C100.288 67.3661 99.643 66.659 99.167 66.0061C97.815 64.174 96.62 62.1661 95.534 60.0761C95.014 59.0801 94.561 57.9781 94.124 56.9631C93.956 56.5721 93.96 55.9791 93.608 55.7791C93.128 56.5211 92.421 57.1231 92.049 58.0021C91.455 59.4041 91.381 61.1191 91.158 62.8931L91.01 62.9671C89.979 62.7171 89.615 61.6551 89.233 60.7441C88.26 58.4391 88.081 54.7241 88.936 52.0721C89.155 51.3851 90.155 49.2201 89.749 48.5881C89.558 47.9551 88.921 47.5881 88.565 47.1041C88.0996 46.455 87.7018 45.7601 87.378 45.0301C86.585 43.2291 86.214 41.2141 85.378 39.3971C84.98 38.5261 84.304 37.6471 83.749 36.8741C83.132 36.0191 82.444 35.3901 81.968 34.3541C81.8 33.9871 81.57 33.3971 81.82 33.0181C81.898 32.7641 82.015 32.6591 82.265 32.5771C82.695 32.2451 83.894 32.6861 84.339 32.8701C85.53 33.3661 86.523 33.8351 87.53 34.5031C88.01 34.8231 88.499 35.4441 89.085 35.6161H89.753C90.796 35.8541 91.964 35.6861 92.941 35.9831C94.664 36.5061 96.211 37.3231 97.609 38.2101C101.882 40.9051 105.375 44.7451 107.765 49.3271C108.152 50.0651 108.316 50.7681 108.656 51.5501C109.34 53.1281 110.199 54.7531 110.879 56.2961C111.559 57.8391 112.219 59.3901 113.176 60.6711C113.68 61.3431 115.629 61.7021 116.512 62.0771C117.133 62.3391 118.149 62.6121 118.735 62.9681C119.86 63.6441 120.946 64.4481 122.001 65.1911C122.524 65.5661 124.142 66.3791 124.224 67.0461L124.219 67.0471ZM91.082 38.8051C90.6335 38.7974 90.1859 38.8471 89.75 38.9531V39.0271H89.824C90.082 39.5621 90.539 39.9061 90.859 40.3631L91.601 41.9181L91.675 41.8481C92.136 41.5241 92.343 41.0041 92.343 40.2151C92.156 40.0201 92.132 39.7781 91.972 39.5471C91.761 39.2381 91.352 39.0671 91.082 38.8051Z" fill="black"/>
</svg>
