<svg width="128" height="128" viewBox="0 0 128 128" fill="none" xmlns="http://www.w3.org/2000/svg">
<path d="M72.0859 86.132L71.4919 85.988C58.3669 82.144 56.3419 71.677 56.3419 71.677L74.5239 76.759L84.1499 39.77L84.0339 39.739C72.2269 36.577 64.3939 31.047 61.2899 28.447C56.8899 24.762 54.9549 22.201 53.0499 26.075C51.3679 29.492 49.2139 35.052 47.1299 42.837C42.6139 59.694 39.2379 95.266 67.1569 102.751L67.7289 102.88L72.0859 86.132ZM53.2789 55.282C53.2789 55.282 57.6789 48.439 65.1409 50.56C72.6079 52.681 73.1859 60.936 73.1859 60.936L53.2789 55.282ZM44.7619 78.733L31.7869 82.41C31.7869 82.41 33.1969 74.381 42.7549 71.198L35.4079 43.625L34.7729 43.818C25.6619 46.275 18.2969 45.623 15.2229 45.091C10.8659 44.34 8.58692 43.383 8.80092 46.697C8.98692 49.62 9.68292 54.151 11.2779 60.137C14.7279 73.098 26.1319 98.074 47.6829 92.269L48.3179 92.07L44.7619 78.733ZM19.5479 60.315L34.8639 56.28C34.8639 56.28 34.4179 62.172 28.6759 63.685C22.9329 65.197 19.5479 60.315 19.5479 60.315ZM109.372 41.336C105.391 42.034 95.8399 42.903 84.0359 39.74C72.2289 36.578 64.3959 31.048 61.2919 28.448C56.8919 24.763 54.9569 22.202 53.0519 26.076C51.3679 29.493 49.2149 35.053 47.1309 42.838C42.6149 59.695 39.2389 95.267 67.1579 102.752C95.0699 110.231 109.93 77.735 114.447 60.877C116.531 53.094 117.445 47.201 117.697 43.401C117.984 39.096 115.027 40.346 109.373 41.337L109.372 41.336ZM53.2789 55.282C53.2789 55.282 57.6789 48.439 65.1409 50.56C72.6079 52.681 73.1859 60.936 73.1859 60.936L53.2789 55.282ZM71.4949 85.988C58.3699 82.143 56.3449 71.677 56.3449 71.677L91.6039 81.535C91.6039 81.533 84.4869 89.785 71.4949 85.988ZM83.9609 64.478C83.9609 64.478 88.3549 57.64 95.8149 59.767C103.275 61.891 103.863 70.146 103.863 70.146L83.9609 64.478ZM51.7319 83.935V76.756L31.7869 82.412C31.7869 82.412 33.2609 73.849 43.6629 70.898C46.8179 70.004 49.5089 70.01 51.7319 70.439V40.995H61.7189C60.6319 37.635 59.5799 35.048 58.6959 33.251C57.2349 30.276 55.7359 32.248 52.3349 35.093C49.9389 37.094 43.8849 41.364 34.7739 43.819C25.6629 46.276 18.2979 45.624 15.2239 45.092C10.8669 44.34 8.58792 43.384 8.80192 46.697C8.98792 49.62 9.68392 54.152 11.2789 60.137C14.7289 73.099 26.1319 98.074 47.6829 92.269C53.3119 90.752 57.2869 87.754 60.0409 83.933H51.7319V83.935ZM19.5479 60.315L34.8639 56.28C34.8639 56.28 34.4169 62.172 28.6749 63.685C22.9319 65.197 19.5469 60.314 19.5469 60.314L19.5479 60.315Z" fill="black"/>
</svg>
