<?xml version="1.0" encoding="UTF-8" standalone="no"?>
<svg
   width="1080"
   height="1080"
   viewBox="0 0 1080 1080"
   fill="none"
   version="1.1"
   id="svg10"
   sodipodi:docname="icon.svg"
   inkscape:version="1.3.2 (091e20ef0f, 2023-11-25, custom)"
   inkscape:export-filename="icon.svg"
   inkscape:export-xdpi="96"
   inkscape:export-ydpi="96"
   xmlns:inkscape="http://www.inkscape.org/namespaces/inkscape"
   xmlns:sodipodi="http://sodipodi.sourceforge.net/DTD/sodipodi-0.dtd"
   xmlns="http://www.w3.org/2000/svg"
   xmlns:svg="http://www.w3.org/2000/svg">
  <sodipodi:namedview
     id="namedview10"
     pagecolor="#ffffff"
     bordercolor="#000000"
     borderopacity="0.25"
     inkscape:showpageshadow="2"
     inkscape:pageopacity="0.0"
     inkscape:pagecheckerboard="0"
     inkscape:deskcolor="#d1d1d1"
     inkscape:zoom="0.52640172"
     inkscape:cx="409.38316"
     inkscape:cy="530.01347"
     inkscape:window-width="1920"
     inkscape:window-height="1008"
     inkscape:window-x="0"
     inkscape:window-y="0"
     inkscape:window-maximized="1"
     inkscape:current-layer="svg10" />
  <g
     clip-path="url(#clip0_172_442)"
     id="g6"
     transform="matrix(1.2887828,0,0,1.2887828,-155.94276,-155.94276)">
    <g
       clip-path="url(#clip1_172_442)"
       filter="url(#filter0_f_172_442)"
       id="g5">
      <mask
         id="mask0_172_442"
         maskUnits="userSpaceOnUse"
         x="-416"
         y="0"
         width="1913"
         height="1080">
        <path
           d="M 1496.92,0 H -416 v 1080 h 1912.92 z"
           fill="#ffffff"
           id="path1" />
      </mask>
      <path
         d="m 224.115,885.98626 c 144.38001,3.67429 291.01779,-7.82677 463.74609,-1.0376 C 871.98719,806.2587 602.14621,730.06253 528.05403,555.41752 453.96186,380.77183 473.09618,88.068529 301.76916,191.71329 121.44245,300.80244 224.11074,711.34057 224.115,885.98626 Z"
         fill="url(#paint0_radial_172_442)"
         id="path2"
         style="mix-blend-mode:multiply;fill:url(#paint0_radial_172_442);stroke-width:0.691294"
         sodipodi:nodetypes="cccsc" />
      <path
         d="m 838.8395,241.87267 c -6.61992,-9.82239 -421.74046,12.12434 -540.02391,16.64492 84.98403,164.09187 261.55108,540.26265 433.64369,602.28765 C 807.66501,683.46671 833.14951,685.30713 873.54895,536.41078 847.45264,457.80302 863.18648,277.99785 838.8395,241.87267 Z"
         fill="url(#paint1_radial_172_442)"
         id="path3"
         style="mix-blend-mode:multiply;fill:url(#paint1_radial_172_442);stroke-width:0.663751"
         sodipodi:nodetypes="scccs" />
    </g>
    <path
       d="m 477,553.2 v 114 c -28.667,20.667 -62,31 -100,31 -23.333,0 -44.467,-3.6 -63.4,-10.8 -18.8,-7.333 -34.867,-17.467 -48.2,-30.4 -13.333,-13.067 -23.6,-28.6 -30.8,-46.6 -7.2,-18 -10.8,-37.8 -10.8,-59.4 0,-21.733 3.467,-41.6 10.4,-59.6 6.933,-18.133 16.867,-33.667 29.8,-46.6 12.933,-13.067 28.533,-23.133 46.8,-30.2 18.267,-7.2 38.8,-10.8 61.6,-10.8 11.6,0 22.333,0.933 32.2,2.8 10,1.733 19.267,4.2 27.8,7.4 8.533,3.2 16.4,7.067 23.6,11.6 7.2,4.533 13.8,9.6 19.8,15.2 l -13.4,21.4 c -2.133,3.333 -4.867,5.4 -8.2,6.2 -3.333,0.8 -6.933,0 -10.8,-2.4 -3.867,-2.267 -8,-4.667 -12.4,-7.2 -4.267,-2.533 -9.2,-4.867 -14.8,-7 -5.6,-2.267 -12.067,-4.067 -19.4,-5.4 -7.333,-1.467 -16,-2.2 -26,-2.2 -15.2,0 -28.933,2.533 -41.2,7.6 -12.133,4.933 -22.533,12.067 -31.2,21.4 -8.667,9.2 -15.333,20.4 -20,33.6 -4.667,13.2 -7,27.933 -7,44.2 0,17.2 2.467,32.6 7.4,46.2 4.933,13.467 11.933,24.933 21,34.4 9.067,9.333 20,16.467 32.8,21.4 12.933,4.933 27.333,7.4 43.2,7.4 11.867,0 22.4,-1.267 31.6,-3.8 9.333,-2.533 18.467,-6.067 27.4,-10.6 v -57.2 h -40.2 c -3.067,0 -5.467,-0.8 -7.2,-2.4 -1.733,-1.733 -2.6,-3.933 -2.6,-6.6 V 553.2 Z M 838.616,407 v 288 h -41.2 V 497.6 c 0,-3.2 0.066,-6.667 0.2,-10.4 0.266,-3.867 0.6,-7.733 1,-11.6 l -92.6,171 c -3.6,7.067 -9.134,10.6 -16.6,10.6 h -6.6 c -7.6,0 -13.134,-3.533 -16.6,-10.6 l -94,-171.4 c 0.4,3.867 0.666,7.733 0.8,11.6 0.266,3.867 0.4,7.467 0.4,10.8 V 695 h -41.2 V 407 h 35 c 4.133,0 7.333,0.4 9.6,1.2 2.266,0.667 4.333,2.867 6.2,6.6 l 92.4,167.4 c 2,3.867 3.866,7.867 5.6,12 1.866,4 3.533,8.133 5,12.4 1.6,-4.267 3.266,-8.467 5,-12.6 1.866,-4.267 3.8,-8.333 5.8,-12.2 l 91,-167 c 1.866,-3.733 3.933,-5.933 6.2,-6.6 2.266,-0.8 5.466,-1.2 9.6,-1.2 z"
       fill="#000000"
       id="path5" />
  </g>
  <defs
     id="defs10">
    <filter
       id="filter0_f_172_442"
       x="-29"
       y="-29"
       width="1138"
       height="1138"
       filterUnits="userSpaceOnUse"
       color-interpolation-filters="sRGB">
      <feFlood
         flood-opacity="0"
         result="BackgroundImageFix"
         id="feFlood6" />
      <feBlend
         mode="normal"
         in="SourceGraphic"
         in2="BackgroundImageFix"
         result="shape"
         id="feBlend6" />
      <feGaussianBlur
         stdDeviation="75"
         result="effect1_foregroundBlur_172_442"
         id="feGaussianBlur6" />
    </filter>
    <radialGradient
       id="paint0_radial_172_442"
       cx="0"
       cy="0"
       r="1"
       gradientUnits="userSpaceOnUse"
       gradientTransform="matrix(-574.18886,-750.00136,931.07839,-712.81856,475.69622,608.93957)"
       fx="0"
       fy="0">
      <stop
         stop-color="#BBEEBE"
         id="stop6" />
      <stop
         offset="1"
         stop-color="#FBFBF9"
         stop-opacity="0"
         id="stop7" />
    </radialGradient>
    <radialGradient
       id="paint1_radial_172_442"
       cx="0"
       cy="0"
       r="1"
       gradientUnits="userSpaceOnUse"
       gradientTransform="matrix(-836.28646,327.03671,-811.04993,-2073.9867,661.85985,441.35717)"
       fx="0"
       fy="0">
      <stop
         stop-color="#C7B4F9"
         id="stop8" />
      <stop
         offset="1"
         stop-color="#FBFBF9"
         stop-opacity="0"
         id="stop9" />
    </radialGradient>
    <clipPath
       id="clip0_172_442">
      <rect
         width="1080"
         height="1080"
         fill="white"
         id="rect9" />
    </clipPath>
    <clipPath
       id="clip1_172_442">
      <rect
         width="838"
         height="838"
         fill="white"
         transform="translate(121 121)"
         id="rect10" />
    </clipPath>
  </defs>
</svg>
