<svg width="13" height="13" viewBox="0 0 13 13" fill="none" xmlns="http://www.w3.org/2000/svg">
<path d="M11 3.4L2.10005 12.3C1.91672 12.4833 1.68338 12.575 1.40005 12.575C1.11672 12.575 0.883382 12.4833 0.700049 12.3C0.516715 12.1167 0.425049 11.8833 0.425049 11.6C0.425049 11.3167 0.516715 11.0833 0.700049 10.9L9.60005 2H2.00005C1.71672 2 1.47922 1.90417 1.28755 1.7125C1.09588 1.52083 1.00005 1.28333 1.00005 1C1.00005 0.716667 1.09588 0.479167 1.28755 0.2875C1.47922 0.0958333 1.71672 0 2.00005 0H12C12.2834 0 12.5209 0.0958333 12.7125 0.2875C12.9042 0.479167 13 0.716667 13 1V11C13 11.2833 12.9042 11.5208 12.7125 11.7125C12.5209 11.9042 12.2834 12 12 12C11.7167 12 11.4792 11.9042 11.2875 11.7125C11.0959 11.5208 11 11.2833 11 11V3.4Z" fill="black"/>
</svg>
