<?xml version="1.0" encoding="UTF-8" standalone="no"?>
<svg
   width="13"
   height="13"
   viewBox="0 0 13 13"
   fill="none"
   version="1.1"
   id="svg1"
   sodipodi:docname="arrow-outward.svg"
   inkscape:version="1.3.2 (091e20ef0f, 2023-11-25, custom)"
   xmlns:inkscape="http://www.inkscape.org/namespaces/inkscape"
   xmlns:sodipodi="http://sodipodi.sourceforge.net/DTD/sodipodi-0.dtd"
   xmlns="http://www.w3.org/2000/svg"
   xmlns:svg="http://www.w3.org/2000/svg">
  <defs
     id="defs1" />
  <sodipodi:namedview
     id="namedview1"
     pagecolor="#ffffff"
     bordercolor="#000000"
     borderopacity="0.25"
     inkscape:showpageshadow="2"
     inkscape:pageopacity="0.0"
     inkscape:pagecheckerboard="0"
     inkscape:deskcolor="#d1d1d1"
     inkscape:zoom="38.727694"
     inkscape:cx="7.8238585"
     inkscape:cy="6.2745796"
     inkscape:window-width="1920"
     inkscape:window-height="1052"
     inkscape:window-x="1920"
     inkscape:window-y="0"
     inkscape:window-maximized="1"
     inkscape:current-layer="svg1" />
  <path
     d="M 9.9095365,4.2037775 2.8320139,11.281312 C 2.6862241,11.427077 2.5006647,11.5 2.2753517,11.5 2.0500388,11.5 1.864481,11.427083 1.7186888,11.281312 1.5728957,11.135548 1.5,10.949941 1.5,10.724652 c 0,-0.225288 0.072896,-0.410894 0.2186888,-0.55666 l 7.077563,-7.0775346 h -6.043761 c -0.2253131,0 -0.4141805,-0.076207 -0.5666026,-0.2286284 C 2.0334661,2.7094076 1.957259,2.5205408 1.957259,2.2952288 1.957259,2.0699142 2.033466,1.8810473 2.1858882,1.7286283 2.3383103,1.5762094 2.5271777,1.5 2.7524908,1.5 h 7.9522782 c 0.225368,0 0.414236,0.076209 0.566602,0.2286283 C 11.423817,1.8810473 11.5,2.0699142 11.5,2.2952288 v 7.9522872 c 0,0.225288 -0.07618,0.414154 -0.228629,0.5666 -0.152366,0.152445 -0.341234,0.228628 -0.566602,0.228628 -0.22529,0 -0.414158,-0.07618 -0.566604,-0.228628 -0.1523659,-0.152446 -0.2286285,-0.341312 -0.2286285,-0.5666 z"
     fill="#000000"
     id="path1"
     style="stroke-width:0.79523" />
</svg>
