<svg width="40" height="40" viewBox="0 0 40 40" fill="none" xmlns="http://www.w3.org/2000/svg">
<path d="M2.22222 33.3334C1.59259 33.3334 1.06481 33.1205 0.638889 32.6945C0.212963 32.2686 0 31.7408 0 31.1112C0 30.4816 0.212963 29.9538 0.638889 29.5279C1.06481 29.1019 1.59259 28.889 2.22222 28.889H24.4444C25.0741 28.889 25.6019 29.1019 26.0278 29.5279C26.4537 29.9538 26.6667 30.4816 26.6667 31.1112C26.6667 31.7408 26.4537 32.2686 26.0278 32.6945C25.6019 33.1205 25.0741 33.3334 24.4444 33.3334H2.22222ZM2.22222 22.2223C1.59259 22.2223 1.06481 22.0093 0.638889 21.5834C0.212963 21.1575 0 20.6297 0 20.0001C0 19.3705 0.212963 18.8427 0.638889 18.4167C1.06481 17.9908 1.59259 17.7779 2.22222 17.7779H37.7778C38.4074 17.7779 38.9352 17.9908 39.3611 18.4167C39.787 18.8427 40 19.3705 40 20.0001C40 20.6297 39.787 21.1575 39.3611 21.5834C38.9352 22.0093 38.4074 22.2223 37.7778 22.2223H2.22222ZM2.22222 11.1112C1.59259 11.1112 1.06481 10.8982 0.638889 10.4723C0.212963 10.0464 0 9.5186 0 8.88897C0 8.25934 0.212963 7.73156 0.638889 7.30564C1.06481 6.87971 1.59259 6.66675 2.22222 6.66675H37.7778C38.4074 6.66675 38.9352 6.87971 39.3611 7.30564C39.787 7.73156 40 8.25934 40 8.88897C40 9.5186 39.787 10.0464 39.3611 10.4723C38.9352 10.8982 38.4074 11.1112 37.7778 11.1112H2.22222Z" fill="black"/>
</svg>
