<svg width="128" height="128" viewBox="0 0 128 128" fill="none" xmlns="http://www.w3.org/2000/svg">
<g clip-path="url(#clip0_110_446)">
<path d="M64 0C28.654 0 0 28.654 0 64C0 99.346 28.654 128 64 128C99.346 128 128 99.346 128 64C128 28.654 99.346 0 64 0ZM64 6.508C95.752 6.508 121.492 32.248 121.492 64C121.492 95.752 95.752 121.492 64 121.492C32.248 121.492 6.508 95.752 6.508 64C6.508 32.248 32.248 6.508 64 6.508ZM64.723 18.441C58.7657 18.4331 52.865 19.5972 47.357 21.867C51.749 25.092 54.6 30.292 54.6 36.158C54.6 45.943 46.666 53.877 36.88 53.877C31.015 53.877 25.814 51.026 22.59 46.635C20.3202 52.1426 19.1561 58.043 19.164 64C19.164 89.162 39.561 109.56 64.723 109.56C89.885 109.56 110.283 89.162 110.283 64C110.283 38.838 89.885 18.441 64.723 18.441Z" fill="black"/>
</g>
<defs>
<clipPath id="clip0_110_446">
<rect width="128" height="128" fill="white"/>
</clipPath>
</defs>
</svg>
