<svg width="128" height="128" viewBox="0 0 128 128" fill="none" xmlns="http://www.w3.org/2000/svg">
<path d="M98.0508 49.5349C96.3575 49.5349 94.7718 50.19 93.5761 51.3779L88.7671 56.1742C87.4673 57.4695 86.8026 59.2643 86.94 61.1037C86.9512 61.2036 86.9587 61.3072 86.9698 61.4073C87.1443 62.8209 87.7644 64.0939 88.7671 65.0932C89.4615 65.7852 90.3156 66.3108 91.2402 66.6142C91.2885 66.8918 91.3145 67.1767 91.3145 67.458C91.3145 68.7274 90.8206 69.9191 89.9219 70.8148L89.6249 71.1108C88.0169 70.5631 86.591 69.6749 85.3766 68.4684C83.7688 66.8659 82.7067 64.8453 82.3056 62.6248L82.2499 62.3139L82.0049 62.5137C81.8415 62.647 81.6817 62.7913 81.5369 62.9356L76.7243 67.732C74.2586 70.1892 74.2586 74.1898 76.7243 76.6509C77.9571 77.8795 79.5799 78.4939 81.199 78.4939C82.8181 78.4939 84.4409 77.8795 85.6737 76.6509L90.4865 71.8546C92.9522 69.3973 92.9522 65.3967 90.4865 62.9393C89.8292 62.2843 89.0456 61.7921 88.158 61.4738C88.1098 61.1852 88.0837 60.8964 88.0837 60.6152C88.0837 59.2348 88.6335 57.9247 89.6324 56.9254C91.244 57.4732 92.67 58.3614 93.8768 59.5642C95.4811 61.1629 96.543 63.1836 96.9478 65.4079L97.0037 65.7187L97.2487 65.5189C97.4121 65.3856 97.5717 65.2413 97.7203 65.0932L102.533 60.3006C104.999 57.8432 104.999 53.8426 102.533 51.3817C101.341 50.1936 99.7515 49.5387 98.0583 49.5387L98.0508 49.5349Z" fill="black"/>
<path d="M95.4735 32H32.5265C14.5903 32 0 46.5406 0 64.4156C0 82.2905 14.5903 96.8312 32.5265 96.8312H95.4735C113.41 96.8312 128 82.2905 128 64.4156C128 46.5406 113.41 32 95.4735 32ZM64.4252 82.8235C63.3854 83.0383 62.2193 83.0788 61.4284 82.25C61.1351 82.9197 60.4554 82.5681 59.9244 82.4794C59.8762 82.6164 59.8353 82.7347 59.787 82.8717C58.0344 82.99 56.7198 81.2062 55.8841 79.8592C54.2243 78.9672 52.3415 78.4196 50.6481 77.4832C50.5479 79.0265 50.8895 80.9361 49.4153 81.9353C49.341 84.8997 53.9197 82.2832 54.3357 84.4963C54.0088 84.5295 53.6486 84.4444 53.3888 84.6961C52.1967 85.8546 50.8226 83.8227 49.4487 84.6592C47.6032 85.5881 47.4137 86.343 45.13 86.5355C45.0036 86.3466 45.0557 86.2171 45.1634 86.1024C45.8057 85.3585 45.8504 84.4778 46.9532 84.1595C45.8207 83.982 44.8736 84.6037 43.9231 85.0996C42.6827 85.6029 42.6938 83.9597 40.7851 85.1847C40.5735 85.0144 40.6737 84.859 40.7963 84.7257C41.2828 84.1374 41.9178 84.0485 42.6381 84.0819C39.103 82.1167 37.4393 86.4836 35.8054 84.3149C35.3152 84.4444 35.1295 84.8849 34.8213 85.1995C34.554 84.9071 34.7581 84.5555 34.7693 84.2114C34.45 84.0633 34.0452 83.9893 34.1418 83.4823C33.5142 83.2713 33.0833 83.6414 32.6192 83.9929C32.1996 83.6709 32.9015 83.1937 33.0315 82.8569C33.4065 82.2054 34.2568 82.7236 34.6913 82.2573C35.9205 81.5616 37.6362 82.694 39.0398 82.5015C40.1242 82.6385 41.4647 81.5282 40.9188 80.4254C39.7603 78.9524 39.9683 77.0243 39.9422 75.259C39.7974 74.2339 37.3241 72.9238 36.6075 71.8135C35.7236 70.8143 35.0329 69.6596 34.3461 68.5197C31.858 63.7199 32.6415 57.5505 29.5073 53.0911C28.0889 53.8719 26.2432 53.5018 25.0177 52.4546C24.3567 53.054 24.327 53.8386 24.2749 54.6713C22.6931 53.0947 22.8899 50.1118 24.1563 48.354C24.6724 47.6582 25.2888 47.0883 25.9832 46.5887C26.1393 46.4776 26.1911 46.3629 26.1875 46.189C27.4389 40.5748 35.98 41.6592 38.6833 45.6339C40.644 48.0801 41.2345 51.3184 43.4552 53.5944C46.4446 56.8548 49.8498 59.7266 52.6088 63.2017C55.2157 66.377 57.0837 70.0963 58.7065 73.849C59.3712 75.0924 59.3749 76.621 60.359 77.683C60.8454 78.3234 63.2109 80.0701 62.6984 80.6882C62.9954 81.3284 65.205 82.2166 64.44 82.8383L64.4252 82.8235ZM105.912 63.6717L101.103 68.468C99.822 69.7447 98.2365 70.6996 96.5208 71.2214L96.4354 71.2473L96.402 71.3324C95.8412 72.8054 94.9946 74.1155 93.8769 75.2294L89.0641 80.0258C86.966 82.1167 84.1735 83.2677 81.2027 83.2677C78.2319 83.2677 75.4394 82.1167 73.3413 80.0294C69.0076 75.7105 69.0076 68.679 73.3413 64.3601L78.154 59.5637C79.4425 58.2796 80.9836 57.3581 82.7289 56.8215L82.8143 56.7956L82.8478 56.7105C83.4048 55.2375 84.2589 53.9237 85.3841 52.8023L90.1931 48.0061C92.2912 45.9151 95.0837 44.7642 98.0545 44.7642C101.025 44.7642 103.821 45.9151 105.916 48.0061C108.01 50.097 109.169 52.8801 109.165 55.8407C109.165 58.8052 108.01 61.5881 105.912 63.6753V63.6717Z" fill="black"/>
<path d="M44.8563 77.0171C44.4329 78.6565 44.2954 81.4507 42.1565 81.532C41.982 82.4795 42.8138 82.8348 43.5752 82.5312C44.3252 82.1871 44.6818 82.8014 44.9379 83.4158C46.0966 83.586 47.8159 83.0309 47.8828 81.6578C46.1485 80.6624 45.6138 78.7675 44.86 77.0171H44.8563Z" fill="black"/>
</svg>
