<svg width="128" height="128" viewBox="0 0 128 128" fill="none" xmlns="http://www.w3.org/2000/svg">
<g clip-path="url(#clip0_44_345)">
<path d="M86.072 24.664C85.9492 24.6631 85.8283 24.6941 85.721 24.754C85.6092 24.8191 85.5159 24.9119 85.4503 25.0234C85.3846 25.135 85.3487 25.2615 85.346 25.391V44.321C85.3438 44.4141 85.3185 44.5052 85.2724 44.5862C85.2264 44.6671 85.1609 44.7354 85.082 44.785C85.0021 44.8279 84.9128 44.8504 84.822 44.8504C84.7313 44.8504 84.642 44.8279 84.562 44.785L81.496 43.012C81.2711 42.883 81.0163 42.8152 80.757 42.8152C80.4978 42.8152 80.243 42.883 80.018 43.012L67.75 50.146C67.5227 50.2739 67.3332 50.4597 67.2008 50.6845C67.0684 50.9093 66.9978 51.1651 66.996 51.426V65.664C66.996 66.188 67.287 66.685 67.75 66.947L80.02 74.082C80.2448 74.2105 80.4992 74.2782 80.758 74.2782C81.0169 74.2782 81.2713 74.2105 81.496 74.082L93.766 66.947C94.229 66.685 94.52 66.188 94.52 65.664V30.168C94.52 29.615 94.229 29.118 93.766 28.858L86.446 24.754C86.3301 24.6953 86.202 24.6645 86.072 24.664ZM13.686 42.43C13.456 42.43 13.225 42.516 13.023 42.63L0.753043 49.739C0.522648 49.8704 0.33144 50.0609 0.199094 50.2908C0.0667472 50.5207 -0.00195962 50.7817 4.25392e-05 51.047L0.0300425 70.148C0.0300425 70.411 0.172043 70.674 0.404043 70.791C0.511512 70.8622 0.637598 70.9002 0.766543 70.9002C0.895488 70.9002 1.02157 70.8622 1.12904 70.791L8.42404 66.598C8.65093 66.4693 8.8398 66.283 8.97151 66.0578C9.10321 65.8327 9.17308 65.5768 9.17404 65.316V56.377C9.17404 55.853 9.46404 55.356 9.92804 55.094L13.023 53.289C13.2492 53.151 13.5102 53.0806 13.775 53.086C14.035 53.086 14.297 53.143 14.5 53.289L17.596 55.094C18.059 55.356 18.35 55.853 18.35 56.377V65.317C18.35 65.839 18.638 66.337 19.1 66.597L26.336 70.791C26.4486 70.862 26.5789 70.8998 26.712 70.8998C26.8451 70.8998 26.9755 70.862 27.088 70.791C27.2033 70.728 27.2992 70.635 27.3656 70.5217C27.4321 70.4084 27.4664 70.2793 27.465 70.148V51.047C27.465 50.523 27.175 50.027 26.711 49.764L14.47 42.63C14.2642 42.5196 14.0385 42.4513 13.806 42.429H13.685L13.686 42.43ZM114.356 42.637V42.639L114.354 42.641C114.101 42.641 113.849 42.706 113.617 42.838L101.346 49.968C100.883 50.232 100.596 50.727 100.596 51.252V65.492C100.596 66.016 100.883 66.512 101.346 66.773L113.529 73.762C113.749 73.8908 113.998 73.9588 114.253 73.9588C114.508 73.9588 114.758 73.8908 114.977 73.762L122.357 69.629C122.472 69.5658 122.567 69.4726 122.634 69.3593C122.7 69.2461 122.734 69.117 122.732 68.986C122.733 68.8554 122.699 68.727 122.633 68.6143C122.567 68.5016 122.471 68.4089 122.357 68.346L110.03 61.21C109.917 61.1438 109.824 61.0496 109.758 60.9366C109.692 60.8237 109.657 60.6956 109.655 60.565V56.11C109.654 55.9796 109.688 55.8514 109.754 55.7391C109.82 55.6267 109.916 55.5344 110.03 55.472L113.884 53.259C113.997 53.188 114.127 53.1503 114.26 53.1503C114.393 53.1503 114.523 53.188 114.636 53.259L118.481 55.472C118.593 55.5374 118.686 55.6304 118.752 55.742C118.818 55.8537 118.855 55.9803 118.858 56.11V59.604C118.858 59.867 119.002 60.129 119.233 60.245C119.346 60.3164 119.477 60.3544 119.61 60.3544C119.744 60.3544 119.874 60.3164 119.987 60.245L127.278 55.965C127.502 55.8351 127.687 55.6482 127.815 55.4233C127.942 55.1984 128.008 54.9436 128.005 54.685V51.22C128.005 50.696 127.713 50.201 127.278 49.938L115.097 42.837C114.872 42.7069 114.617 42.6377 114.357 42.636L114.356 42.637ZM47.313 42.686C47.0736 42.6865 46.8386 42.7496 46.631 42.869L34.461 49.936L38.719 57.746L47.457 42.7C47.4095 42.6939 47.3618 42.6896 47.314 42.687H47.312L47.313 42.686ZM47.879 42.834L56.486 57.648L60.531 50.203C60.4561 50.1262 60.3721 50.0587 60.281 50.002L54.01 46.359L47.973 42.871C47.943 42.856 47.91 42.846 47.879 42.834ZM47.629 42.894L38.855 57.998L47.557 73.963C47.581 73.958 47.605 73.956 47.629 73.949L56.348 57.902L47.628 42.895L47.629 42.894ZM34.252 50.066C34.0718 50.1921 33.9251 50.3603 33.8247 50.556C33.7243 50.7517 33.6733 50.969 33.676 51.189V65.49C33.676 65.718 33.738 65.94 33.844 66.137L38.572 57.994L34.252 50.066ZM60.702 50.408L56.631 57.898L60.949 65.332V51.189C60.949 50.909 60.857 50.636 60.701 50.409L60.702 50.408ZM80.758 53.273C80.8231 53.273 80.888 53.288 80.948 53.318L85.141 55.766C85.257 55.824 85.316 55.967 85.316 56.084V60.977C85.316 61.123 85.256 61.241 85.141 61.299L80.945 63.744C80.8863 63.7725 80.8219 63.7874 80.7565 63.7874C80.6912 63.7874 80.6268 63.7725 80.568 63.744L76.373 61.301C76.257 61.243 76.197 61.096 76.197 60.979V56.086C76.197 55.94 76.258 55.825 76.373 55.766L80.568 53.318C80.627 53.2884 80.6921 53.273 80.758 53.273ZM114.313 55.253C114.261 55.2535 114.211 55.2695 114.168 55.299L111.822 56.668C111.778 56.6953 111.742 56.7336 111.717 56.7792C111.692 56.8248 111.679 56.876 111.68 56.928V59.668C111.68 59.784 111.735 59.872 111.822 59.93L114.168 61.299C114.211 61.3273 114.261 61.3424 114.313 61.3424C114.364 61.3424 114.414 61.3273 114.457 61.299L116.801 59.929C116.845 59.9012 116.882 59.8627 116.907 59.817C116.932 59.7714 116.945 59.7201 116.945 59.668V56.93C116.945 56.8779 116.932 56.8266 116.907 56.7811C116.882 56.7355 116.845 56.6973 116.801 56.67L114.457 55.299C114.414 55.2708 114.364 55.2558 114.313 55.256V55.254V55.253ZM56.494 58.153L47.982 73.818L47.996 73.811L60.283 66.674C60.626 66.48 60.846 66.148 60.92 65.771L56.494 58.153ZM38.711 58.248L33.996 66.365C34.096 66.488 34.213 66.595 34.346 66.675L46.5 73.737L46.63 73.812H46.633C46.7277 73.8657 46.8284 73.908 46.933 73.938C46.964 73.948 46.995 73.953 47.025 73.96C47.085 73.973 47.143 73.982 47.203 73.987C47.232 73.99 47.26 73.989 47.289 73.989L38.711 58.248ZM63.221 71.641C62.794 71.641 62.368 71.741 62.006 71.945L50.456 78.675C50.0853 78.8919 49.7779 79.2023 49.5645 79.5752C49.3511 79.9481 49.2393 80.3704 49.24 80.8V94.22C49.24 95.094 49.703 95.909 50.455 96.347L53.496 98.093C54.971 98.821 55.491 98.817 56.156 98.817C58.326 98.817 59.572 97.479 59.572 95.179V81.936C59.5711 81.8441 59.5346 81.7562 59.4703 81.6906C59.406 81.625 59.3189 81.5868 59.227 81.584H57.752C57.659 81.585 57.5701 81.6224 57.5043 81.6882C57.4385 81.754 57.4011 81.8429 57.4 81.936V95.184C57.4 96.203 56.334 97.223 54.627 96.35L51.471 94.516C51.355 94.458 51.297 94.309 51.297 94.193V80.768C51.297 80.652 51.355 80.505 51.471 80.448L63.016 73.752C63.103 73.694 63.248 73.694 63.366 73.752L74.91 80.447C75.025 80.507 75.086 80.623 75.086 80.767V94.191C75.086 94.336 75.026 94.456 74.91 94.514L63.363 101.24C63.276 101.298 63.131 101.298 63.013 101.24L60.064 99.463C59.976 99.405 59.86 99.377 59.774 99.433C58.964 99.901 58.821 99.961 58.039 100.223C57.865 100.281 57.576 100.395 58.154 100.715L62.006 103.018C62.382 103.221 62.786 103.336 63.221 103.336C63.655 103.336 64.087 103.221 64.434 103.076L75.98 96.35C76.351 96.132 76.6583 95.8206 76.8715 95.4469C77.0846 95.0732 77.1962 94.6502 77.195 94.22V80.8C77.195 79.926 76.732 79.114 75.98 78.677L64.434 71.947C64.0623 71.7437 63.6448 71.6377 63.221 71.641ZM81.248 77.77C80.6552 77.7723 80.0876 78.0101 79.6699 78.4309C79.2523 78.8517 79.0189 79.4211 79.021 80.014C79.0195 80.6065 79.2531 81.1754 79.6706 81.5958C80.0882 82.0161 80.6555 82.2536 81.248 82.256C82.465 82.256 83.478 81.236 83.478 80.014C83.4752 79.4222 83.2397 78.8553 82.8225 78.4356C82.4053 78.016 81.8398 77.7773 81.248 77.771V77.77ZM81.218 78.146H81.221C81.4679 78.1429 81.7129 78.189 81.9418 78.2816C82.1706 78.3742 82.3787 78.5115 82.554 78.6853C82.7293 78.8592 82.8682 79.0662 82.9626 79.2944C83.0571 79.5225 83.1051 79.7671 83.104 80.014C83.104 81.034 82.263 81.904 81.221 81.904C80.209 81.904 79.367 81.062 79.367 80.014C79.367 78.966 80.236 78.148 81.218 78.146ZM80.408 78.76V81.32H80.902V80.307H81.34C81.514 80.307 81.57 80.365 81.6 80.51C81.6 80.54 81.686 81.179 81.686 81.295H82.206C82.146 81.179 82.119 80.827 82.09 80.623C82.062 80.303 82.034 80.072 81.686 80.043C81.86 79.984 82.146 79.898 82.146 79.432C82.146 78.762 81.566 78.762 81.277 78.762L80.408 78.76ZM80.846 79.168H81.248C81.3941 79.168 81.627 79.168 81.627 79.518C81.627 79.634 81.568 79.868 81.248 79.868H80.846V79.168ZM66.377 81.178C63.077 81.178 61.105 82.577 61.105 84.936C61.105 87.47 63.074 88.164 66.229 88.484C70.019 88.864 70.309 89.419 70.309 90.176C70.309 91.486 69.267 92.037 66.836 92.037C63.768 92.037 63.101 91.28 62.869 89.738C62.869 89.562 62.729 89.448 62.555 89.448H61.05C60.9572 89.448 60.8682 89.4848 60.8026 89.5505C60.7369 89.6161 60.7 89.7051 60.7 89.798C60.7 91.778 61.744 94.105 66.81 94.105C70.455 94.105 72.565 92.649 72.565 90.085C72.565 87.582 70.885 86.911 67.327 86.445C63.737 85.979 63.362 85.717 63.362 84.873C63.362 84.174 63.682 83.244 66.342 83.244C68.717 83.244 69.614 83.768 69.962 85.369C69.9786 85.4415 70.0185 85.5065 70.0755 85.5542C70.1326 85.6019 70.2038 85.6296 70.278 85.633H71.812C71.899 85.633 71.989 85.576 72.048 85.518C72.1023 85.4405 72.1323 85.3485 72.134 85.254C71.903 82.459 70.082 81.178 66.377 81.178Z" fill="black"/>
</g>
<defs>
<clipPath id="clip0_44_345">
<rect width="128" height="128" fill="white"/>
</clipPath>
</defs>
</svg>
