<svg width="128" height="128" viewBox="0 0 128 128" fill="none" xmlns="http://www.w3.org/2000/svg">
<path d="M64 123.553C95.7951 123.553 121.57 97.7779 121.57 65.9828C121.57 34.1877 95.7951 8.41272 64 8.41272C32.2049 8.41272 6.42993 34.1877 6.42993 65.9828C6.42993 97.7779 32.2049 123.553 64 123.553Z" stroke="black" stroke-width="7.5"/>
<path d="M51.6593 44.3531V46.1198C54.2292 42.729 57.0311 40.2484 60.065 38.6779C63.1345 37.0718 66.6503 36.2687 70.6121 36.2687C74.467 36.2687 77.9113 37.1075 80.9452 38.785C83.979 40.4626 86.2455 42.8361 87.7446 45.9057C88.7083 47.6903 89.3329 49.6177 89.6185 51.6879C89.904 53.7581 90.0468 56.3993 90.0468 59.6117V86.8095C90.0468 89.7363 89.3686 91.9492 88.0123 93.4483C86.6917 94.9474 84.9606 95.6969 82.819 95.6969C80.6418 95.6969 78.875 94.9295 77.5187 93.3948C76.1623 91.86 75.4842 89.6649 75.4842 86.8095V62.4492C75.4842 57.6307 74.806 53.9544 73.4497 51.4202C72.1291 48.8503 69.47 47.5654 65.4724 47.5654C62.8668 47.5654 60.4933 48.3506 58.3517 49.9211C56.2102 51.4559 54.6397 53.5796 53.6403 56.2923C52.9264 58.4695 52.5695 62.5385 52.5695 68.4991V86.8095C52.5695 89.772 51.8735 92.0027 50.4815 93.5018C49.1252 94.9652 47.3584 95.6969 45.1811 95.6969C43.0753 95.6969 41.3442 94.9295 39.9879 93.3948C38.6315 91.86 37.9534 89.6649 37.9534 86.8095V44.5672C37.9534 41.7832 38.5601 39.713 39.7737 38.3567C40.9872 36.9647 42.647 36.2687 44.7528 36.2687C46.0378 36.2687 47.1978 36.5721 48.2329 37.1788C49.2679 37.7856 50.0889 38.6958 50.6956 39.9093C51.3381 41.1229 51.6593 42.6041 51.6593 44.3531Z" fill="black"/>
<path d="M64 17.9444C68.9551 17.9444 72.972 13.9275 72.972 8.97239C72.972 4.01731 68.9551 0.000427246 64 0.000427246C59.045 0.000427246 55.0281 4.01731 55.0281 8.97239C55.0281 13.9275 59.045 17.9444 64 17.9444Z" fill="black"/>
<path d="M105.603 90.002C103.125 94.2932 104.595 99.7804 108.887 102.258C113.178 104.735 118.665 103.265 121.142 98.974C123.62 94.6828 122.15 89.1956 117.858 86.7181C113.567 84.2405 108.08 85.7108 105.603 90.002Z" fill="black"/>
<path d="M22.3974 90.002C19.9199 85.7108 14.4327 84.2405 10.1415 86.7181C5.85027 89.1956 4.37998 94.6828 6.85752 98.974C9.33506 103.265 14.8222 104.736 19.1135 102.258C23.4047 99.7804 24.875 94.2933 22.3974 90.002Z" fill="black"/>
</svg>
