<svg width="128" height="128" viewBox="0 0 128 128" fill="none" xmlns="http://www.w3.org/2000/svg">
<path d="M91.5569 1.91999L49.0499 10.248C48.8189 10.2923 48.6092 10.4125 48.4542 10.5895C48.2991 10.7665 48.2075 10.9901 48.1939 11.225L45.5769 55.393C45.5647 55.5584 45.5918 55.7244 45.656 55.8773C45.7203 56.0303 45.8199 56.1658 45.9466 56.2729C46.0733 56.3799 46.2236 56.4554 46.3852 56.4931C46.5467 56.5308 46.7149 56.5298 46.8759 56.49L58.7119 53.754C60.1559 53.422 61.4919 54.726 61.1939 56.178L57.6769 73.396C57.6356 73.577 57.6431 73.7657 57.6987 73.9428C57.7544 74.1199 57.8561 74.279 57.9935 74.4039C58.1308 74.5288 58.2989 74.6149 58.4805 74.6534C58.6621 74.6918 58.8507 74.6814 59.0269 74.623L66.3349 72.4C67.8099 71.953 69.2639 73.281 68.9549 74.791L63.3649 101.838C63.2369 102.458 63.5569 102.852 64.0029 103.035C64.4489 103.218 64.9529 103.162 65.2959 102.631L65.9059 101.686L100.532 32.58C100.942 31.762 100.278 30.888 99.3859 31.06L87.1999 33.413C85.7099 33.703 84.4079 32.277 84.8309 30.819L92.7819 3.25699C92.8373 3.08199 92.8456 2.89551 92.8061 2.71627C92.7665 2.53704 92.6806 2.37137 92.5567 2.23589C92.4329 2.10041 92.2756 1.9999 92.1006 1.94445C91.9257 1.889 91.7392 1.88056 91.5599 1.91999H91.5569ZM6.08594 14.86C5.93132 14.8552 5.77657 14.8619 5.62294 14.88C3.51694 15.134 2.15594 17.517 3.30494 19.531L61.8869 122.261C63.0899 124.371 66.1369 124.359 67.3239 122.238L124.766 19.52C126.055 17.215 124.078 14.453 121.48 14.926L88.7359 20.895L85.7929 31.095V31.098C85.7377 31.2724 85.7293 31.4583 85.7685 31.6369C85.8078 31.8156 85.8934 31.9808 86.0167 32.116C86.14 32.2511 86.2967 32.3515 86.471 32.407C86.6453 32.4624 86.8312 32.4711 87.0099 32.432H87.0119L99.1949 30.078V30.08C100.841 29.761 102.181 31.526 101.428 33.027L66.7749 102.182L66.1369 103.174C65.8765 103.578 65.4825 103.879 65.0235 104.022C64.5645 104.166 64.0696 104.145 63.6249 103.961C63.1794 103.78 62.8115 103.448 62.5854 103.023C62.3592 102.598 62.289 102.108 62.3869 101.637L67.9769 74.59C68.0186 74.4087 68.0113 74.2197 67.9559 74.0422C67.9006 73.8646 67.799 73.705 67.6617 73.5796C67.5244 73.4542 67.3562 73.3675 67.1744 73.3284C66.9926 73.2893 66.8037 73.2991 66.6269 73.357L59.3179 75.58C57.8459 76.028 56.3909 74.705 56.6979 73.197L60.2149 55.979C60.2547 55.8041 60.2489 55.622 60.1983 55.4501C60.1476 55.2781 60.0537 55.1219 59.9255 54.9966C59.7973 54.8712 59.6392 54.7808 59.4661 54.7339C59.293 54.6871 59.1109 54.6854 58.9369 54.729L47.1019 57.465C45.7739 57.769 44.5019 56.694 44.5799 55.334L46.5529 22.057L6.56594 14.91C6.40739 14.8816 6.24695 14.8648 6.08594 14.86Z" fill="black"/>
</svg>
