<svg width="40" height="40" viewBox="0 0 40 40" fill="none" xmlns="http://www.w3.org/2000/svg">
<path d="M15 32C13.9 32 12.9583 31.6083 12.175 30.825C11.3917 30.0417 11 29.1 11 28V4C11 2.9 11.3917 1.95833 12.175 1.175C12.9583 0.391667 13.9 0 15 0H33C34.1 0 35.0417 0.391667 35.825 1.175C36.6083 1.95833 37 2.9 37 4V28C37 29.1 36.6083 30.0417 35.825 30.825C35.0417 31.6083 34.1 32 33 32H15ZM15 28H33V4H15V28ZM7 40C5.9 40 4.95833 39.6083 4.175 38.825C3.39167 38.0417 3 37.1 3 36V10C3 9.43333 3.19167 8.95833 3.575 8.575C3.95833 8.19167 4.43333 8 5 8C5.56667 8 6.04167 8.19167 6.425 8.575C6.80833 8.95833 7 9.43333 7 10V36H27C27.5667 36 28.0417 36.1917 28.425 36.575C28.8083 36.9583 29 37.4333 29 38C29 38.5667 28.8083 39.0417 28.425 39.425C28.0417 39.8083 27.5667 40 27 40H7Z" fill="black"/>
</svg>
